<svg width="65" height="73" viewBox="0 0 65 73" fill="none" xmlns="http://www.w3.org/2000/svg">
<path d="M63.0934 38.3433L50.3147 48.7718C49.6909 49.2809 48.8731 49.5357 48.0561 49.5357C47.239 49.5357 46.4212 49.2809 45.7974 48.7718C44.5491 47.7531 44.5491 46.1034 45.7974 45.0853L53.1228 39.1071H22.4986C20.7328 39.1071 19.3039 37.9411 19.3039 36.5C19.3039 35.0589 20.7328 33.8929 22.4986 33.8929H53.1228L45.7974 27.9147C44.5491 26.8959 44.5491 25.2463 45.7974 24.2282C47.0457 23.2101 49.0672 23.2094 50.3147 24.2282L63.0934 34.6567C64.3417 35.6748 64.3417 37.3252 63.0934 38.3433ZM41.6667 67.7857H9.7199C7.95724 67.7857 6.52522 66.6171 6.52522 65.1786V7.82143C6.52522 6.38294 7.95724 5.21429 9.7199 5.21429H41.6667C43.4326 5.21429 44.8614 4.04824 44.8614 2.60714C44.8614 1.16604 43.4326 0 41.6667 0H9.7199C4.4351 0 0.135864 3.50856 0.135864 7.82143V65.1786C0.135864 69.4914 4.4351 73 9.7199 73H41.6667C43.4326 73 44.8614 71.834 44.8614 70.3929C44.8614 68.9518 43.4326 67.7857 41.6667 67.7857Z" fill="white"/>
</svg>
